<svg width="20" height="20" viewBox="0 0 20 20" fill="none" xmlns="http://www.w3.org/2000/svg">
<g clip-path="url(#clip0_2:53)">
<path d="M15.8063 12.3897C15.3968 11.9633 14.903 11.7354 14.3795 11.7354C13.8603 11.7354 13.3622 11.9591 12.9359 12.3855L11.602 13.7151C11.4923 13.656 11.3825 13.6011 11.277 13.5463C11.125 13.4703 10.9815 13.3985 10.8591 13.3225C9.60966 12.529 8.47417 11.4948 7.38512 10.1567C6.85747 9.48975 6.5029 8.92834 6.24541 8.35849C6.59154 8.0419 6.91235 7.71265 7.22471 7.39607C7.34291 7.27787 7.4611 7.15546 7.57929 7.03727C8.46573 6.15083 8.46573 5.00268 7.57929 4.11624L6.42692 2.96387C6.29606 2.83302 6.16099 2.69794 6.03435 2.56287C5.78108 2.30115 5.51515 2.031 5.24078 1.77773C4.83133 1.3725 4.34168 1.15723 3.8267 1.15723C3.31172 1.15723 2.81362 1.3725 2.39151 1.77773C2.38729 1.78195 2.38729 1.78195 2.38307 1.78618L0.947882 3.23403C0.407577 3.77433 0.0994339 4.43283 0.0318957 5.19685C-0.0694116 6.42943 0.293606 7.57758 0.572201 8.32894C1.25603 10.1736 2.27754 11.8831 3.80137 13.7151C5.65023 15.9228 7.87477 17.6661 10.4159 18.8944C11.3868 19.3545 12.6826 19.8991 14.1305 19.9919C14.2191 19.9962 14.312 20.0004 14.3964 20.0004C15.3715 20.0004 16.1904 19.65 16.832 18.9535C16.8362 18.9451 16.8447 18.9409 16.8489 18.9324C17.0684 18.6665 17.3217 18.4259 17.5876 18.1684C17.7691 17.9953 17.9548 17.8138 18.1364 17.6239C18.5542 17.1891 18.7737 16.6826 18.7737 16.1634C18.7737 15.6399 18.55 15.1376 18.1237 14.7155L15.8063 12.3897ZM17.3175 16.8345C17.3132 16.8345 17.3132 16.8387 17.3175 16.8345C17.1528 17.0118 16.984 17.1722 16.8025 17.3495C16.5281 17.6112 16.2495 17.8856 15.9878 18.1937C15.5615 18.6496 15.0591 18.8649 14.4006 18.8649C14.3373 18.8649 14.2698 18.8649 14.2065 18.8607C12.9528 18.7805 11.7878 18.2908 10.914 17.8729C8.52482 16.7163 6.42692 15.0743 4.68359 12.9933C3.24418 11.2584 2.28176 9.65438 1.64437 7.93215C1.2518 6.88109 1.10829 6.06219 1.1716 5.28972C1.21381 4.79585 1.40377 4.3864 1.75412 4.03604L3.19353 2.59663C3.40036 2.40246 3.61986 2.29693 3.83514 2.29693C4.10107 2.29693 4.31635 2.45734 4.45143 2.59241C4.45565 2.59663 4.45987 2.60086 4.46409 2.60508C4.72158 2.84568 4.9664 3.09473 5.22389 3.36066C5.35475 3.49574 5.48983 3.63081 5.6249 3.77011L6.77727 4.92248C7.22471 5.36992 7.22471 5.78359 6.77727 6.23103C6.65486 6.35345 6.53667 6.47586 6.41425 6.59405C6.05968 6.95707 5.72199 7.29476 5.35475 7.62401C5.34631 7.63245 5.33786 7.63667 5.33364 7.64511C4.97063 8.00813 5.03816 8.36271 5.11414 8.60331C5.11837 8.61598 5.12259 8.62864 5.12681 8.6413C5.42651 9.36734 5.84862 10.0512 6.49023 10.8658L6.49446 10.8701C7.65949 12.3052 8.88784 13.4239 10.2428 14.2807C10.4159 14.3905 10.5932 14.4791 10.762 14.5636C10.914 14.6395 11.0575 14.7113 11.1799 14.7873C11.1968 14.7957 11.2137 14.8084 11.2306 14.8168C11.3741 14.8886 11.5092 14.9224 11.6485 14.9224C11.9988 14.9224 12.2183 14.7029 12.2901 14.6311L13.7337 13.1875C13.8772 13.0439 14.1052 12.8709 14.3711 12.8709C14.6328 12.8709 14.8481 13.0355 14.9789 13.179C14.9832 13.1832 14.9832 13.1832 14.9874 13.1875L17.3132 15.5133C17.748 15.9439 17.748 16.3871 17.3175 16.8345Z" fill="#2175A4"/>
<path d="M10.8085 4.7574C11.9144 4.94313 12.919 5.46656 13.7211 6.26857C14.5231 7.07059 15.0423 8.07522 15.2322 9.18116C15.2786 9.45975 15.5193 9.65392 15.7936 9.65392C15.8274 9.65392 15.8569 9.6497 15.8907 9.64548C16.2031 9.59483 16.4099 9.29935 16.3593 8.98698C16.1313 7.64888 15.4981 6.42898 14.5315 5.46233C13.5649 4.49569 12.345 3.86252 11.0069 3.63458C10.6945 3.58393 10.4032 3.79076 10.3484 4.09891C10.2935 4.40705 10.4961 4.70675 10.8085 4.7574Z" fill="#2175A4"/>
<path d="M19.9768 8.82242C19.6011 6.61899 18.5627 4.61395 16.9671 3.01836C15.3715 1.42277 13.3665 0.384369 11.1631 0.00868772C10.8549 -0.0461871 10.5637 0.16487 10.5088 0.473013C10.4581 0.785377 10.665 1.07664 10.9773 1.13151C12.9444 1.46498 14.7384 2.39785 16.1651 3.82037C17.5919 5.24712 18.5205 7.0411 18.854 9.00815C18.9004 9.28675 19.141 9.48092 19.4154 9.48092C19.4492 9.48092 19.4787 9.4767 19.5125 9.47248C19.8206 9.42604 20.0317 9.13056 19.9768 8.82242Z" fill="#2175A4"/>
</g>
<defs>
<clipPath id="clip0_2:53">
<rect width="20" height="20" fill="white"/>
</clipPath>
</defs>
</svg>
