<svg width="19" height="19" viewBox="0 0 19 19" fill="none" xmlns="http://www.w3.org/2000/svg">
<g clip-path="url(#clip0_2:51)">
<path d="M16.2175 2.78248C14.4232 0.988182 12.0375 0 9.5 0C6.96236 0 4.57677 0.988182 2.78248 2.78248C0.988182 4.57677 0 6.96236 0 9.5C0 12.0375 0.988182 14.4232 2.78248 16.2175C4.57677 18.0118 6.96236 19 9.5 19C12.0375 19 14.4232 18.0118 16.2175 16.2175C18.0118 14.4232 19 12.0375 19 9.5C19 6.96236 18.0118 4.57677 16.2175 2.78248ZM4.76261 16.4167C5.15994 14.129 7.1424 12.4415 9.5 12.4415C11.8577 12.4415 13.8401 14.129 14.2374 16.4167C12.8885 17.3434 11.2566 17.8867 9.5 17.8867C7.74339 17.8867 6.11145 17.3434 4.76261 16.4167ZM6.47935 8.30757C6.47935 6.64185 7.83443 5.28693 9.5 5.28693C11.1656 5.28693 12.5206 6.642 12.5206 8.30757C12.5206 9.97314 11.1656 11.3282 9.5 11.3282C7.83443 11.3282 6.47935 9.97314 6.47935 8.30757ZM15.2017 15.6445C14.902 14.5795 14.307 13.6132 13.4729 12.8584C12.9612 12.3953 12.3787 12.0298 11.7525 11.7722C12.8843 11.034 13.6341 9.75672 13.6341 8.30757C13.6341 6.0281 11.7795 4.17365 9.5 4.17365C7.22053 4.17365 5.36607 6.0281 5.36607 8.30757C5.36607 9.75672 6.1158 11.034 7.24749 11.7722C6.62141 12.0298 6.03883 12.3951 5.52712 12.8583C4.69318 13.6131 4.09798 14.5793 3.79835 15.6444C2.14799 14.1117 1.11328 11.9246 1.11328 9.5C1.11328 4.87553 4.87553 1.11328 9.5 1.11328C14.1245 1.11328 17.8867 4.87553 17.8867 9.5C17.8867 11.9247 16.852 14.1119 15.2017 15.6445Z" fill="#2175A4"/>
</g>
<defs>
<clipPath id="clip0_2:51">
<rect width="19" height="19" fill="white"/>
</clipPath>
</defs>
</svg>
