<svg width="16" height="15" viewBox="0 0 16 15" fill="none" xmlns="http://www.w3.org/2000/svg">
<path d="M6.09186 2.07696C6.67834 0.209164 9.32166 0.209164 9.90815 2.07696L10.1865 2.96339C10.4504 3.80401 11.2334 4.37287 12.1144 4.36414L13.0435 4.35493C15.0011 4.33552 15.8179 6.84948 14.2228 7.98444L13.4658 8.52307C12.7479 9.03387 12.4488 9.9543 12.7293 10.7895L13.0252 11.6703C13.6486 13.5261 11.5101 15.0798 9.93775 13.9134L9.19155 13.3599C8.4839 12.835 7.5161 12.835 6.80845 13.3599L6.06225 13.9134C4.48991 15.0798 2.35141 13.5261 2.9748 11.6703L3.27065 10.7895C3.55122 9.9543 3.25215 9.03387 2.53424 8.52307L1.77721 7.98443C0.182058 6.84948 0.998891 4.33552 2.95651 4.35493L3.88555 4.36414C4.7666 4.37287 5.54957 3.80401 5.81352 2.96339L6.09186 2.07696Z" fill="#FDB53F"/>
</svg>
