<svg width="17" height="18" viewBox="0 0 17 18" fill="none" xmlns="http://www.w3.org/2000/svg">
<path d="M6.99304 2.02656C8.44387 -0.341725 12.0776 0.530122 12.2959 3.29888C12.3936 4.53711 13.2774 5.57165 14.4852 5.86143C17.1859 6.50941 17.4796 10.2347 14.9138 11.298C13.7664 11.7734 13.0556 12.9337 13.1532 14.1719C13.3715 16.9407 9.91927 18.3712 8.11523 16.2596C7.30844 15.3152 5.98531 14.9978 4.83786 15.4732C2.27207 16.5364 -0.155253 13.6952 1.29557 11.3269C1.9444 10.2678 1.83745 8.91134 1.03066 7.96698C-0.773383 5.85532 1.17869 2.66881 3.87939 3.31679C5.08719 3.60658 6.34421 3.08569 6.99304 2.02656Z" fill="#F6EB16"/>
</svg>
